<svg version="1.2" xmlns="http://www.w3.org/2000/svg" viewBox="0 0 1200 800" width="1200" height="800"><defs><linearGradient id="P" gradientUnits="userSpaceOnUse"/><linearGradient id="g1" x2="1" href="#P" gradientTransform="matrix(-392.123,392.117,-0.003,-0.003,796.852,203.902)"><stop stop-color="#c9c9c9" stop-opacity="0"/><stop offset=".21" stop-color="#c9c9c9" stop-opacity="1"/><stop offset=".79" stop-color="#c9c9c9" stop-opacity="1"/><stop offset="1" stop-color="#c9c9c9" stop-opacity="0"/></linearGradient><linearGradient id="g2" x2="1" href="#P" gradientTransform="matrix(-1201.419,0,0,0,NaN,NaN)"><stop stop-color="#c9c9c9" stop-opacity="0"/><stop offset=".21" stop-color="#c9c9c9" stop-opacity="1"/><stop offset=".79" stop-color="#c9c9c9" stop-opacity="1"/><stop offset="1" stop-color="#c9c9c9" stop-opacity="0"/></linearGradient><linearGradient id="g3" x2="1" href="#P" gradientTransform="matrix(0,-799.759,0,0,NaN,NaN)"><stop stop-color="#c9c9c9" stop-opacity="0"/><stop offset=".21" stop-color="#c9c9c9" stop-opacity="1"/><stop offset=".79" stop-color="#c9c9c9" stop-opacity="1"/><stop offset="1" stop-color="#c9c9c9" stop-opacity="0"/></linearGradient><linearGradient id="g4" x2="1" href="#P" gradientTransform="matrix(392.122,392.117,-0.002,.002,404.85,203.903)"><stop stop-color="#c9c9c9" stop-opacity="0"/><stop offset=".21" stop-color="#c9c9c9" stop-opacity="1"/><stop offset=".79" stop-color="#c9c9c9" stop-opacity="1"/><stop offset="1" stop-color="#c9c9c9" stop-opacity="0"/></linearGradient><clipPath clipPathUnits="userSpaceOnUse" id="cp1"><path d="m581.36 380.53h38.69v38.69h-38.69z"/></clipPath></defs><style>.a{fill:#eaeaea}.b{fill:#fafafa}.c{fill:none;stroke:#c9c9c9;stroke-width:2.4}.d{fill:none;stroke:url(#g1);stroke-width:2.4}.e{fill:none;stroke:url(#g2);stroke-width:2.4}.f{fill:none;stroke:url(#g3);stroke-width:2.4}.g{fill:none;stroke:url(#g4);stroke-width:2.4}.h{fill:#fff}.i{fill:#666}</style><path fill-rule="evenodd" class="a" d="m3-200h1194c1.7 0 3 1.3 3 3v1194c0 1.7-1.3 3-3 3h-1194c-1.7 0-3-1.3-3-3v-1194c0-1.7 1.3-3 3-3z"/><g style="opacity:.5"><g style="opacity:.5"><path class="b" d="m600.7 536.5c-75.4 0-136.6-61.2-136.6-136.6 0-75.5 61.2-136.6 136.6-136.6 75.5 0 136.6 61.1 136.6 136.6 0 75.4-61.1 136.6-136.6 136.6z"/><path class="c" d="m600.7 536.5c-75.4 0-136.6-61.2-136.6-136.6 0-75.5 61.2-136.6 136.6-136.6 75.5 0 136.6 61.1 136.6 136.6 0 75.4-61.1 136.6-136.6 136.6z"/></g><path fill-rule="evenodd" class="d" d="m406 596.6l391.4-391.4"/><path fill-rule="evenodd" class="e" d="m404.8 398.7h391.8"/><path fill-rule="evenodd" class="f" d="m599.5 595.7v-391.7"/><path fill-rule="evenodd" class="g" d="m795.7 596.6l-391.4-391.4"/><path class="h" d="m600.7 456.7c-31.4 0-56.8-25.4-56.8-56.8 0-31.4 25.4-56.8 56.8-56.8 31.4 0 56.8 25.4 56.8 56.8 0 31.4-25.4 56.8-56.8 56.8z"/><g clip-path="url(#cp1)"><path fill-rule="evenodd" class="i" d="m581.2 406.5l0.2-0.1v-23.4h38.7v17.9 0.1l1.3 1.3-1.3 1.4v7.1q0 1.2-0.5 2.3-0.5 1.1-1.3 1.9-0.9 0.9-2 1.3-1.1 0.5-2.3 0.5h-26.6q-1.2 0-2.3-0.5-1.1-0.4-2-1.3-0.8-0.8-1.3-1.9-0.4-1.1-0.4-2.3v-4.1zm19.5-5.3l3.7 3.7 1.2 1.3-2.5 2.5-1.3-1.3-5.2-5.2h-6.1l-5.6 5.6v2.9q0 0.5 0.2 0.9 0.2 0.5 0.5 0.8 0.4 0.4 0.8 0.5 0.5 0.2 1 0.2h26.6q0.4 0 0.9-0.2 0.4-0.1 0.8-0.5 0.3-0.3 0.5-0.8 0.2-0.4 0.2-0.9v-8.3l-8.5-8.5-7.2 7.2zm15.7-14.6h-31.4v16.1l3.6-3.5 0.5-0.6h9.1l8.5-8.5h2.6l7.1 7.2z"/></g><path class="c" d="m600.7 456.7c-31.4 0-56.8-25.4-56.8-56.8 0-31.4 25.4-56.8 56.8-56.8 31.4 0 56.8 25.4 56.8 56.8 0 31.4-25.4 56.8-56.8 56.8z"/></g></svg>